# xmcd CD database file
#
# Track frame offsets:
#	182
#	29785
#	47470
#	69110
#	103185
#	138537
#	163212
#	190085
#	234395
#	274440
#	306922
#
# Disc length: 4249 seconds
#
# Revision: 0
# Processed by: cddbd v1.5.2PL0 Copyright (c) Steve Scherf et al.
# Submitted via: CDex 1.70beta2
#
DISCID=9f10970b
DTITLE=Haydn, Franz Joseph - Klassische Kostbarkeiten
DYEAR=1990
DGENRE=Klassik
TTITLE0=Erster Satz: Allegro - Konzert für Trompete und Orchester  Es-Dur Hob. 7e CD 2/3
TTITLE1=Zweiter Satz: Andante - Konzert für Trompete und Orchester  Es-Dur Hob. 7e CD 2/3
TTITLE2=Dritter Satz: Finale (Allegro) - Konzert für Trompete und Orchester  Es-Dur Hob. 7e CD 2/3
TTITLE3=Erster Satz: Allegro - Streichquartett Nr. 77  C-Dur Hob. 76/3 „Kaiser-Quartett" CD 2/3
TTITLE4=Zweiter Satz: Tema Con variazonl (poco adagio cantabile) „Kaiser-Quartett" CD 2/3
TTITLE5=Dritter Satz: Menuetto: Allegro - Streichquartett Nr. 77  C-Dur Hob. 76/3 „Kaiser-Quartett" CD 2/3
TTITLE6=Vierter Satzi Finale - Presto - Streichquartett Nr. 77  C-Dur Hob. 76/3 „Kaiser-Quartett" CD 2/3
TTITLE7=Erster Satz: Moderato - Konzert für Violoncello und Orchester Nr. 1 C-Dur Hob. 7b CD 2/3
TTITLE8=Zweiter Satz: Adagio - Konzert für Violoncello und Orchester Nr. 1 C-Dur Hob. 7b CD 2/3
TTITLE9=Dritter Satz: Allegro molto - Konzert für Violoncello und Orchester Nr. 1 C-Dur Hob. 7b CD 2/3
TTITLE10=Serenade ans Streichquartett Nr. 17 F-Dur op. 3/5 CD 2/3
EXTD=YEAR: 1990
EXTT0=
EXTT1=
EXTT2=
EXTT3=
EXTT4=
EXTT5=
EXTT6=
EXTT7=
EXTT8=
EXTT9=
EXTT10=
PLAYORDER=
